<svg version="1.1" id="Layer_1" xmlns="http://www.w3.org/2000/svg" xmlns:xlink="http://www.w3.org/1999/xlink" x="0px" y="0px"
	 width="100%" viewBox="0 0 242 118" enable-background="new 0 0 242 118" xml:space="preserve">
<path fill="#F7F8F8" opacity="1.000000" stroke="none" 
	d="
M164.000000,119.000000 
	C109.333336,119.000000 55.166672,119.000000 1.000007,119.000000 
	C1.000005,79.666672 1.000005,40.333344 1.000002,1.000013 
	C81.666656,1.000008 162.333313,1.000008 242.999969,1.000004 
	C242.999985,40.333321 242.999985,79.666641 243.000000,118.999985 
	C216.833328,119.000000 190.666672,119.000000 164.000000,119.000000 
M165.377197,89.677681 
	C165.626984,89.477036 165.857727,89.256485 166.841766,88.816673 
	C167.217545,83.904663 167.696869,78.996613 167.885132,74.077431 
	C167.924591,73.045929 166.892593,71.973412 166.215637,70.222351 
	C166.263443,69.517090 166.311249,68.811836 167.006500,68.073036 
	C168.304459,69.386948 169.602402,70.700867 171.070175,72.628021 
	C171.173325,73.255394 171.276474,73.882774 171.202286,75.193802 
	C171.727036,75.819214 172.251785,76.444626 173.158142,77.592842 
	C173.768555,78.729523 174.378983,79.866211 174.982437,81.746056 
	C175.769409,82.428276 176.556366,83.110497 177.955658,84.042198 
	C180.615738,85.759277 183.275833,87.476357 186.107559,89.932953 
	C189.336533,92.756058 196.865875,92.894989 200.748047,89.982338 
	C202.353287,89.554802 203.958542,89.127274 206.509644,88.878395 
	C208.099121,88.862434 209.688599,88.846474 211.659149,88.962173 
	C211.659149,88.962173 211.989288,89.193626 212.224823,89.587196 
	C212.447037,89.821411 212.719147,89.950775 213.829865,90.033592 
	C218.178177,89.860786 219.409576,87.154495 217.034653,84.189201 
	C214.613266,81.165901 215.315353,79.061852 216.724258,76.208725 
	C220.761810,68.032364 219.238495,54.995300 209.158630,47.526001 
	C200.543777,41.142300 191.720245,41.806431 181.737228,45.188679 
	C180.824677,46.130047 179.912125,47.071415 178.703751,48.554043 
	C177.780060,49.359524 176.856369,50.165005 175.479553,51.210308 
	C175.336716,51.512642 175.193878,51.814976 174.940521,52.669331 
	C174.606049,53.104031 174.271576,53.538734 173.249893,54.100674 
	C171.741043,56.186996 170.232178,58.273319 167.964447,61.408958 
	C167.964447,56.545418 168.117172,52.793606 167.885925,49.065609 
	C167.798859,47.661964 166.822021,46.313515 166.084473,44.477661 
	C166.084473,44.477661 166.005646,43.992767 165.485367,43.374493 
	C157.838562,42.234455 157.044067,42.884426 157.036987,50.395111 
	C157.026260,61.797161 156.964462,73.200180 157.119781,84.600121 
	C157.139877,86.074966 158.323395,87.533966 159.267319,89.376335 
	C159.484238,89.616226 159.733429,89.815842 160.154358,90.325844 
	C160.440018,90.243919 160.725677,90.162003 161.752808,90.011833 
	C162.495590,90.045090 163.238373,90.078346 164.197708,90.420357 
	C164.463348,90.269066 164.728989,90.117767 165.377197,89.677681 
M60.088486,78.475212 
	C60.704735,72.598732 62.208637,66.647682 61.722687,60.863808 
	C61.046570,52.816620 56.302372,46.459000 48.194302,44.824516 
	C40.866287,43.347279 33.166481,43.714363 25.118740,43.237850 
	C25.118740,54.318020 25.029594,64.265015 25.155849,74.209274 
	C25.220249,79.281540 23.788263,86.370399 26.464605,88.863411 
	C29.274302,91.480644 36.191498,89.874413 41.308014,89.786270 
	C49.348728,89.647751 55.778614,86.464424 60.088486,78.475212 
M129.263641,90.598221 
	C132.059113,89.682518 134.854568,88.766823 136.271271,88.302757 
	C139.810303,89.021278 142.315292,89.529861 145.421463,90.160500 
	C145.421463,82.181931 145.445068,75.384277 145.415115,68.586868 
	C145.382187,61.116268 143.439774,57.651985 138.272308,55.693512 
	C132.183884,53.385990 123.959305,54.879593 120.134605,59.133133 
	C119.135223,60.244560 118.523262,61.704350 117.675285,63.099731 
	C121.232735,65.093483 123.379402,65.053368 126.292809,62.625431 
	C128.271072,60.976807 132.111557,60.896847 134.968002,61.270721 
	C136.246582,61.438072 137.539200,64.344437 137.995636,66.210762 
	C138.132401,66.769974 135.582489,68.453606 134.060120,68.859413 
	C130.227325,69.881104 126.192101,70.178688 122.401299,71.312469 
	C118.771049,72.398239 116.642517,75.182343 116.451920,79.113403 
	C116.252563,83.224884 117.484932,86.844933 121.326324,88.747131 
	C123.480690,89.813942 126.060944,90.020683 129.263641,90.598221 
M93.552208,79.451180 
	C93.548180,75.294510 93.632080,71.135468 93.520477,66.981689 
	C93.331192,59.936943 90.203896,56.126976 83.904053,55.039337 
	C75.186951,53.534378 68.835495,56.438965 66.225021,63.323299 
	C68.952629,64.808403 71.093674,65.361938 74.126991,62.924690 
	C76.216110,61.246105 79.896057,60.798729 82.722496,61.107166 
	C84.104103,61.257935 85.384155,64.300117 86.152229,66.253036 
	C86.285957,66.593086 83.756012,68.476570 82.254143,68.864616 
	C78.731613,69.774742 75.005173,69.922569 71.511139,70.909492 
	C66.825668,72.232964 64.355835,75.528786 64.586807,80.569237 
	C64.808571,85.408852 67.667885,89.457626 72.628517,89.921158 
	C76.970444,90.326874 81.454529,89.211266 86.636261,88.691414 
	C87.929970,89.007690 90.340340,89.596970 93.555130,90.382912 
	C93.555130,86.344559 93.555130,83.384796 93.552208,79.451180 
M114.337837,89.617455 
	C115.286331,86.543068 115.454300,84.163658 111.075844,83.744743 
	C109.865067,83.628906 107.964661,81.505341 107.896660,80.222588 
	C107.564857,73.963684 107.746483,67.677567 107.746483,61.265465 
	C111.310600,60.461517 116.934196,61.859680 113.993065,55.317211 
	C111.856949,55.090027 109.926270,54.884697 108.875191,54.772911 
	C106.135475,52.140160 110.423973,47.042400 104.352104,46.737118 
	C97.452934,46.390240 102.156860,52.454323 99.500923,54.875977 
	C95.743919,54.530769 94.480423,56.401016 96.080269,60.477959 
	C97.367500,60.730953 98.751930,61.003052 99.954277,61.239361 
	C100.181862,61.909504 100.374947,62.216759 100.377991,62.525883 
	C100.430359,67.847923 100.464043,73.170174 100.492317,78.492424 
	C100.541542,87.758949 104.153137,90.912300 114.337837,89.617455 
z"/>
<path fill="#6BD48E" opacity="1.000000" stroke="none" 
	d="
M174.989395,81.002899 
	C174.378983,79.866211 173.768555,78.729523 172.995972,77.017090 
	C172.349091,75.797615 171.864365,75.153877 171.379623,74.510147 
	C171.276474,73.882774 171.173325,73.255394 171.041336,71.862938 
	C171.987366,65.389717 172.962234,59.681576 173.937103,53.973438 
	C174.271576,53.538734 174.606049,53.104031 175.221481,52.271202 
	C175.645859,51.572212 175.789276,51.271351 175.932678,50.970486 
	C176.856369,50.165005 177.780060,49.359524 179.178406,48.242905 
	C180.596725,47.072033 181.540390,46.212299 182.484055,45.352570 
	C191.720245,41.806431 200.543777,41.142300 209.158630,47.526001 
	C219.238495,54.995300 220.761810,68.032364 216.724258,76.208725 
	C215.315353,79.061852 214.613266,81.165901 217.034653,84.189201 
	C219.409576,87.154495 218.178177,89.860786 213.322266,89.799988 
	C212.599808,89.308655 212.324677,89.184410 211.989288,89.193626 
	C211.989288,89.193626 211.659149,88.962173 211.318115,88.560898 
	C208.939697,86.004860 207.156631,86.399147 205.563782,88.699738 
	C203.958542,89.127274 202.353287,89.554802 199.942642,90.030090 
	C194.736801,89.783035 190.336349,89.488235 185.935913,89.193436 
	C183.275833,87.476357 180.615738,85.759277 177.542953,83.621605 
	C176.416626,82.468307 175.703003,81.735603 174.989395,81.002899 
M186.569260,81.248833 
	C187.658630,81.653145 188.724442,82.144241 189.841232,82.447540 
	C196.540756,84.266998 202.392868,82.770569 207.044388,77.574692 
	C211.734283,72.335938 212.516678,66.192207 209.738785,59.913193 
	C206.860291,53.406773 201.497009,50.077507 194.330811,50.011135 
	C187.434372,49.947266 181.285416,54.551868 178.945023,61.328083 
	C176.389511,68.727196 178.724701,75.315414 186.569260,81.248833 
z"/>
<path fill="#213841" opacity="1.000000" stroke="none" 
	d="
M59.915588,78.808029 
	C55.778614,86.464424 49.348728,89.647751 41.308014,89.786270 
	C36.191498,89.874413 29.274302,91.480644 26.464605,88.863411 
	C23.788263,86.370399 25.220249,79.281540 25.155849,74.209274 
	C25.029594,64.265015 25.118740,54.318020 25.118740,43.237850 
	C33.166481,43.714363 40.866287,43.347279 48.194302,44.824516 
	C56.302372,46.459000 61.046570,52.816620 61.722687,60.863808 
	C62.208637,66.647682 60.704735,72.598732 59.915588,78.808029 
M47.227043,82.128143 
	C54.908371,77.460258 57.761765,66.946083 53.773548,58.005589 
	C50.496166,50.658577 41.874584,47.775253 32.511810,50.866890 
	C32.511810,61.617920 32.511810,72.352280 32.511810,84.087914 
	C37.452511,83.501381 41.976200,82.964355 47.227043,82.128143 
z"/>
<path fill="#253A43" opacity="1.000000" stroke="none" 
	d="
M128.856476,90.606575 
	C126.060944,90.020683 123.480690,89.813942 121.326324,88.747131 
	C117.484932,86.844933 116.252563,83.224884 116.451920,79.113403 
	C116.642517,75.182343 118.771049,72.398239 122.401299,71.312469 
	C126.192101,70.178688 130.227325,69.881104 134.060120,68.859413 
	C135.582489,68.453606 138.132401,66.769974 137.995636,66.210762 
	C137.539200,64.344437 136.246582,61.438072 134.968002,61.270721 
	C132.111557,60.896847 128.271072,60.976807 126.292809,62.625431 
	C123.379402,65.053368 121.232735,65.093483 117.675285,63.099731 
	C118.523262,61.704350 119.135223,60.244560 120.134605,59.133133 
	C123.959305,54.879593 132.183884,53.385990 138.272308,55.693512 
	C143.439774,57.651985 145.382187,61.116268 145.415115,68.586868 
	C145.445068,75.384277 145.421463,82.181931 145.421463,90.160500 
	C142.315292,89.529861 139.810303,89.021278 136.271271,88.302757 
	C134.854568,88.766823 132.059113,89.682518 128.856476,90.606575 
M129.552383,85.007698 
	C136.991257,84.100594 139.693970,80.391068 137.515808,73.624847 
	C134.656097,74.079018 131.555222,74.077545 128.886948,75.151176 
	C126.743004,76.013840 123.986549,77.904541 123.522919,79.826584 
	C122.722458,83.144981 125.666832,84.562798 129.552383,85.007698 
z"/>
<path fill="#253A42" opacity="1.000000" stroke="none" 
	d="
M93.553665,79.938110 
	C93.555130,83.384796 93.555130,86.344559 93.555130,90.382912 
	C90.340340,89.596970 87.929970,89.007690 86.636261,88.691414 
	C81.454529,89.211266 76.970444,90.326874 72.628517,89.921158 
	C67.667885,89.457626 64.808571,85.408852 64.586807,80.569237 
	C64.355835,75.528786 66.825668,72.232964 71.511139,70.909492 
	C75.005173,69.922569 78.731613,69.774742 82.254143,68.864616 
	C83.756012,68.476570 86.285957,66.593086 86.152229,66.253036 
	C85.384155,64.300117 84.104103,61.257935 82.722496,61.107166 
	C79.896057,60.798729 76.216110,61.246105 74.126991,62.924690 
	C71.093674,65.361938 68.952629,64.808403 66.225021,63.323299 
	C68.835495,56.438965 75.186951,53.534378 83.904053,55.039337 
	C90.203896,56.126976 93.331192,59.936943 93.520477,66.981689 
	C93.632080,71.135468 93.548180,75.294510 93.553665,79.938110 
M84.705719,82.131256 
	C85.498169,79.503555 86.290619,76.875847 87.411758,73.158218 
	C82.119720,74.193573 78.306824,74.574066 74.791107,75.804031 
	C73.348701,76.308662 71.526978,78.788544 71.711952,80.113922 
	C71.945152,81.784836 73.992844,84.395866 75.367470,84.466537 
	C78.259773,84.615250 81.223640,83.372055 84.705719,82.131256 
z"/>
<path fill="#283E45" opacity="1.000000" stroke="none" 
	d="
M113.982185,89.784004 
	C104.153137,90.912300 100.541542,87.758949 100.492317,78.492424 
	C100.464043,73.170174 100.430359,67.847923 100.377991,62.525883 
	C100.374947,62.216759 100.181862,61.909504 99.954277,61.239361 
	C98.751930,61.003052 97.367500,60.730953 96.080269,60.477959 
	C94.480423,56.401016 95.743919,54.530769 99.500923,54.875977 
	C102.156860,52.454323 97.452934,46.390240 104.352104,46.737118 
	C110.423973,47.042400 106.135475,52.140160 108.875191,54.772911 
	C109.926270,54.884697 111.856949,55.090027 113.993065,55.317211 
	C116.934196,61.859680 111.310600,60.461517 107.746483,61.265465 
	C107.746483,67.677567 107.564857,73.963684 107.896660,80.222588 
	C107.964661,81.505341 109.865067,83.628906 111.075844,83.744743 
	C115.454300,84.163658 115.286331,86.543068 113.982185,89.784004 
z"/>
<path fill="#6BD18E" opacity="1.000000" stroke="none" 
	d="
M166.005646,43.992767 
	C166.005646,43.992767 166.084473,44.477661 166.071106,45.174610 
	C166.158173,53.283230 166.258621,60.694904 166.359070,68.106575 
	C166.311249,68.811836 166.263443,69.517090 166.155182,71.031403 
	C166.086319,77.565651 166.077881,83.290840 166.069443,89.016029 
	C165.857727,89.256485 165.626984,89.477036 164.926392,89.815445 
	C164.310791,90.006012 164.145966,90.058807 163.981155,90.111603 
	C163.238373,90.078346 162.495590,90.045090 161.138062,89.970879 
	C160.353821,89.945007 160.184357,89.960098 160.014877,89.975182 
	C159.733429,89.815842 159.484238,89.616226 159.158829,88.721313 
	C159.048218,75.469658 159.040176,62.873009 159.046356,50.276367 
	C159.049637,43.578548 159.060730,43.578552 166.005646,43.992767 
z"/>
<path fill="#CFF8E4" opacity="1.000000" stroke="none" 
	d="
M165.745514,43.683632 
	C159.060730,43.578552 159.049637,43.578548 159.046356,50.276367 
	C159.040176,62.873009 159.048218,75.469658 159.009155,88.533302 
	C158.323395,87.533966 157.139877,86.074966 157.119781,84.600121 
	C156.964462,73.200180 157.026260,61.797161 157.036987,50.395111 
	C157.044067,42.884426 157.838562,42.234455 165.745514,43.683632 
z"/>
<path fill="#CFF8E4" opacity="1.000000" stroke="none" 
	d="
M166.682785,68.089806 
	C166.258621,60.694904 166.158173,53.283230 166.154266,45.405731 
	C166.822021,46.313515 167.798859,47.661964 167.885925,49.065609 
	C168.117172,52.793606 167.964447,56.545418 167.964447,61.408958 
	C170.232178,58.273319 171.741043,56.186996 173.593506,54.037056 
	C172.962234,59.681576 171.987366,65.389717 170.956421,71.556320 
	C169.602402,70.700867 168.304459,69.386948 166.682785,68.089806 
z"/>
<path fill="#CFF8E4" opacity="1.000000" stroke="none" 
	d="
M166.455597,88.916351 
	C166.077881,83.290840 166.086319,77.565651 166.224548,71.380127 
	C166.892593,71.973412 167.924591,73.045929 167.885132,74.077431 
	C167.696869,78.996613 167.217545,83.904663 166.455597,88.916351 
z"/>
<path fill="#CFF8E4" opacity="1.000000" stroke="none" 
	d="
M186.021729,89.563194 
	C190.336349,89.488235 194.736801,89.783035 199.599365,90.134140 
	C196.865875,92.894989 189.336533,92.756058 186.021729,89.563194 
z"/>
<path fill="#CFF8E4" opacity="1.000000" stroke="none" 
	d="
M206.036713,88.789062 
	C207.156631,86.399147 208.939697,86.004860 211.127579,88.495071 
	C209.688599,88.846474 208.099121,88.862434 206.036713,88.789062 
z"/>
<path fill="#CFF8E4" opacity="1.000000" stroke="none" 
	d="
M182.110641,45.270622 
	C181.540390,46.212299 180.596725,47.072033 179.326324,47.972275 
	C179.912125,47.071415 180.824677,46.130047 182.110641,45.270622 
z"/>
<path fill="#CFF8E4" opacity="1.000000" stroke="none" 
	d="
M174.985916,81.374481 
	C175.703003,81.735603 176.416626,82.468307 177.236786,83.496864 
	C176.556366,83.110497 175.769409,82.428276 174.985916,81.374481 
z"/>
<path fill="#CFF8E4" opacity="1.000000" stroke="none" 
	d="
M171.290955,74.851974 
	C171.864365,75.153877 172.349091,75.797615 172.805176,76.755692 
	C172.251785,76.444626 171.727036,75.819214 171.290955,74.851974 
z"/>
<path fill="#CFF8E4" opacity="1.000000" stroke="none" 
	d="
M175.706116,51.090401 
	C175.789276,51.271351 175.645859,51.572212 175.276733,51.995193 
	C175.193878,51.814976 175.336716,51.512642 175.706116,51.090401 
z"/>
<path fill="#CFF8E4" opacity="1.000000" stroke="none" 
	d="
M212.107056,89.390411 
	C212.324677,89.184410 212.599808,89.308655 212.927902,89.770828 
	C212.719147,89.950775 212.447037,89.821411 212.107056,89.390411 
z"/>
<path fill="#CFF8E4" opacity="1.000000" stroke="none" 
	d="
M160.084625,90.150513 
	C160.184357,89.960098 160.353821,89.945007 160.767319,90.005005 
	C160.725677,90.162003 160.440018,90.243919 160.084625,90.150513 
z"/>
<path fill="#CFF8E4" opacity="1.000000" stroke="none" 
	d="
M164.089432,90.265976 
	C164.145966,90.058807 164.310791,90.006012 164.735107,89.959846 
	C164.728989,90.117767 164.463348,90.269066 164.089432,90.265976 
z"/>
<path fill="#F1F9F5" opacity="1.000000" stroke="none" 
	d="
M186.226349,81.076019 
	C178.724701,75.315414 176.389511,68.727196 178.945023,61.328083 
	C181.285416,54.551868 187.434372,49.947266 194.330811,50.011135 
	C201.497009,50.077507 206.860291,53.406773 209.738785,59.913193 
	C212.516678,66.192207 211.734283,72.335938 207.044388,77.574692 
	C202.392868,82.770569 196.540756,84.266998 189.841232,82.447540 
	C188.724442,82.144241 187.658630,81.653145 186.226349,81.076019 
z"/>
<path fill="#EEF0F2" opacity="1.000000" stroke="none" 
	d="
M46.863464,82.277740 
	C41.976200,82.964355 37.452511,83.501381 32.511810,84.087914 
	C32.511810,72.352280 32.511810,61.617920 32.511810,50.866890 
	C41.874584,47.775253 50.496166,50.658577 53.773548,58.005589 
	C57.761765,66.946083 54.908371,77.460258 46.863464,82.277740 
z"/>
<path fill="#E0E5E7" opacity="1.000000" stroke="none" 
	d="
M129.148621,85.000076 
	C125.666832,84.562798 122.722458,83.144981 123.522919,79.826584 
	C123.986549,77.904541 126.743004,76.013840 128.886948,75.151176 
	C131.555222,74.077545 134.656097,74.079018 137.515808,73.624847 
	C139.693970,80.391068 136.991257,84.100594 129.148621,85.000076 
z"/>
<path fill="#E1E7E9" opacity="1.000000" stroke="none" 
	d="
M84.431931,82.415695 
	C81.223640,83.372055 78.259773,84.615250 75.367470,84.466537 
	C73.992844,84.395866 71.945152,81.784836 71.711952,80.113922 
	C71.526978,78.788544 73.348701,76.308662 74.791107,75.804031 
	C78.306824,74.574066 82.119720,74.193573 87.411758,73.158218 
	C86.290619,76.875847 85.498169,79.503555 84.431931,82.415695 
z"/>
</svg>